<svg xmlns="http://www.w3.org/2000/svg" viewBox="0 0 1600 500">
  <defs>
    <filter id="rough" x="-10%" y="-10%" width="120%" height="120%">
      <feTurbulence type="fractalNoise" baseFrequency="0.8" numOctaves="1" result="n"/>
      <feDisplacementMap in="SourceGraphic" in2="n" scale="1"/>
    </filter>
  </defs>
  <rect width="100%" height="100%" fill="#ffffff"/>
  <g filter="url(#rough)" transform="translate(80,100)">
    <path d="M0,0 L0,200 M0,200 L120,200 M120,200 L120,0 M120,0 L0,0" fill="none" stroke="#111" stroke-width="26" stroke-linecap="round"/>
    <path d="M180,0 L180,200 M240,0 L240,200 M180,100 L240,100" stroke="#111" stroke-width="26" stroke-linecap="round"/>
    <path d="M330,0 L330,200 M330,0 L460,0 M330,100 L460,100 M330,200 L460,200" stroke="#111" stroke-width="26" stroke-linecap="round"/>
    <path d="M520,0 L520,200 M580,0 L580,200 M520,200 L580,200" stroke="#111" stroke-width="26" stroke-linecap="round"/>
    <g transform="translate(660,0)">
      <path d="M0,200 L0,0 L120,0" stroke="#111" stroke-width="26" stroke-linecap="round" fill="none"/>
      <path d="M120,0 L120,200 L0,200" stroke="#111" stroke-width="26" stroke-linecap="round" fill="none"/>
      <path d="M60,0 L60,200" stroke="#111" stroke-width="22" stroke-linecap="round"/>
    </g>
    <path d="M860,0 L860,200 M920,0 L920,200 M980,0 L980,200" stroke="#111" stroke-width="26" stroke-linecap="round"/>
    <path d="M1060,200 L1060,0 L1180,200 L1180,0" stroke="#111" stroke-width="26" stroke-linecap="round" fill="none"/>
    <path d="M1240,0 L1240,200 M1300,0 L1300,200 M1240,200 L1300,200" stroke="#111" stroke-width="26" stroke-linecap="round"/>
  </g>
  <title>NO KINGS — Nutopia banner</title>
</svg>