<svg xmlns="http://www.w3.org/2000/svg" viewBox="0 0 1400 900">
  <defs>
    <filter id="rough" x="-10%" y="-10%" width="120%" height="120%">
      <feTurbulence type="fractalNoise" baseFrequency="0.9" numOctaves="1" result="n"/>
      <feDisplacementMap in="SourceGraphic" in2="n" scale="1"/>
    </filter>
  </defs>
  <rect width="100%" height="100%" fill="#ffffff"/>
  <rect x="10" y="10" width="1380" height="880" fill="none" stroke="#e5e5e5" stroke-width="20"/>
  <g transform="translate(150,200) scale(1.0)" filter="url(#rough)">
    <path d="M0,0 L0,140" stroke="#111" stroke-width="26" stroke-linecap="round"/>
    <path d="M0,0 C40,0 80,20 80,60 C80,100 40,120 0,120" fill="none" stroke="#111" stroke-width="26" stroke-linecap="round"/>
    <path d="M120,0 L120,140 M120,0 L200,0 M120,70 L200,70 M120,140 L200,140" stroke="#111" stroke-width="26" stroke-linecap="round"/>
    <g transform="translate(240,0)">
      <circle cx="60" cy="70" r="60" fill="none" stroke="#111" stroke-width="26"/>
      <path d="M60,10 L60,130" stroke="#111" stroke-width="22" stroke-linecap="round"/>
      <path d="M10,100 L110,40" stroke="#111" stroke-width="18" stroke-linecap="round"/>
      <path d="M10,40 L110,100" stroke="#111" stroke-width="18" stroke-linecap="round"/>
    </g>
    <path d="M420,0 L420,140 M420,0 L520,0 M420,70 L520,70" stroke="#111" stroke-width="26" stroke-linecap="round"/>
    <path d="M560,0 L560,140 M560,0 L660,0 M560,140 L660,140" stroke="#111" stroke-width="26" stroke-linecap="round"/>
  </g>
  <title>Nutopia White Flag — PEACE with Anarchy-A</title>
</svg>